<?xml version="1.0" encoding="UTF-8"?>
<svg class="svg-animations " width="765" height="625" style="background-color:rgb(229, 50, 45)" version="1.1" viewBox="0 0 310.71 300" xmlns="http://www.w3.org/2000/svg">
<svg x="25.892" y="105" width="90" height="90" fill="rgb(255, 255, 255)" viewBox="0 0 118 138.98599243164062">
<svg width="118" height="134" viewBox="0 0 118 134" xmlns="http://www.w3.org/2000/svg">
<path d="m94.191 53.72-13.534 37.233c-0.7109 1.9688-2.5888 3.2948-4.6948 3.2948l-52.756 0.0535c-2.106 0-3.9705 1.3126-4.6948 3.2814l-10.838 29.706c-1.167 3.201 1.1402 6.683 4.5472 6.696h0.0671 50.65v-0.04c0.5903 0.014 1.167 0.04 1.7707 0.04 29.43 0 53.292-21.549 53.292-48.135 0-13.38-6.036-25.474-15.788-34.193-2.629-2.3305-6.8141-1.2456-8.0213 2.0625z"/>
<path d="m43.192 40.448 51.361-0.0536c2.106 0 3.9705-1.3125 4.6948-3.2814l11.079-30.416c1.167-3.201-1.14-6.6833-4.547-6.6966h-0.067-50.65v0.04018c-0.5902-0.013393-1.1804-0.04018-1.7706-0.04018-29.43 0-53.292 21.55-53.292 48.136 0 13.889 6.519 26.398 16.955 35.184 2.6559 2.2367 6.747 1.1519 7.9409-2.1161l13.601-37.461c0.7109-1.9688 2.5889-3.2813 4.6948-3.2947z"/>
</svg>
</svg>
<text x="125.89218749999998" y="164.21875" fill="#ffffff" font-family="Times New Roman" font-size="54px"><tspan x="125.89218749999998" dy="0">Resize</tspan></text>
<text x="200.353125" y="183.90625" fill="#ffffff" font-family="Helvetica" font-size="16px"><tspan x="200.353125" dy="0"/></text>
</svg>
